<?xml version="1.0" encoding="UTF-8"?>
<svg width="162px" height="156px" viewBox="0 0 162 156" version="1.1" xmlns="http://www.w3.org/2000/svg" xmlns:xlink="http://www.w3.org/1999/xlink">
    <title>Logo couleur</title>
    <defs>
        <linearGradient x1="0%" y1="64.1901328%" x2="100%" y2="64.1901328%" id="linearGradient-1">
            <stop stop-color="#C3E895" offset="0%"></stop>
            <stop stop-color="#6BD4C8" offset="51.3645481%"></stop>
            <stop stop-color="#6B88E6" offset="100%"></stop>
        </linearGradient>
    </defs>
    <g id="Logo-couleur" stroke="none" stroke-width="1" fill="none" fill-rule="evenodd">
        <g id="Group" transform="translate(84.000000, 58.000000) scale(-1, 1) translate(-84.000000, -58.000000) translate(74.000000, 12.000000)">
            <polygon id="Path-3" fill-opacity="0.591100306" fill="#CBCBCB" points="10 46 0 46 10 92"></polygon>
            <polygon id="Path-3" fill="#6B88E6" transform="translate(15.000000, 23.000000) scale(-1, -1) translate(-15.000000, -23.000000) " points="20 0 10 2.2822022e-14 20 46"></polygon>
        </g>
        <text id="cloud-Nord" font-family="Panton-ExtraBold, Panton" font-size="33" font-weight="600">
            <tspan x="2.427" y="152" fill="#4C4C4C">cloud</tspan>
            <tspan x="82.353" y="152" fill="#FFFFFF"> </tspan>
            <tspan x="89.019" y="152" fill="#6B88E6">Nord</tspan>
        </text>
        <path d="M80.980139,114 C73.6657496,114 66.3342369,112.333333 58.9856007,109 C54.3200926,112.333333 48.3215822,114 40.9900695,114 C20.9950347,114 1,97 1,74 C1,55.3333333 11.3307679,42.3333333 31.9923038,35 C43.3228235,14.3333333 59.6521019,4 80.980139,4 C95.6431644,4 107.973436,9 117.970953,19 C129.301473,13 138.299239,13.6666667 144.96425,21 C151.629262,28.3333333 152.629013,36.3333333 147.963505,45 C155.961519,51.6666667 160.293777,61.3333333 160.960278,74 C161.96003,93 143.964179,114 120.970208,114 C112.972195,114 106.640434,112.333333 101.974925,109 C95.2927904,112.333333 88.2945283,114 80.980139,114 Z" id="Path-4" stroke="#979797"></path>
        <path d="M80.980139,114 C73.6657496,114 66.3342369,112.333333 58.9856007,109 C54.3200926,112.333333 48.3215822,114 40.9900695,114 C20.9950347,114 1,97 1,74 C1,55.3333333 11.3307679,42.3333333 31.9923038,35 C43.3228235,14.3333333 59.6521019,4 80.980139,4 C95.6431644,4 107.973436,9 117.970953,19 C129.967974,14.3333333 138.96574,15 144.96425,21 C150.962761,27 151.962512,35 147.963505,45 C155.961519,51.6666667 160.293777,61.3333333 160.960278,74 C161.96003,93 143.964179,114 120.970208,114 C112.972195,114 106.640434,112.333333 101.974925,109 C95.2927904,112.333333 88.2945283,114 80.980139,114 Z" id="Path-4" stroke="url(#linearGradient-1)" stroke-width="3"></path>
    </g>
</svg>